<?xml version="1.0" encoding="utf-8"?>
<!-- Generator: Adobe Illustrator 24.2.0, SVG Export Plug-In . SVG Version: 6.00 Build 0)  -->
<svg version="1.1" id="Capa_1" xmlns="http://www.w3.org/2000/svg" xmlns:xlink="http://www.w3.org/1999/xlink" x="0px" y="0px"
	 viewBox="0 0 792 238.6" style="enable-background:new 0 0 792 238.6;" xml:space="preserve">
<style type="text/css">
	.st0{fill:#3212DC;}
	.st1{fill:#46B3CD;}
	.st2{fill:#CDF03B;}
</style>
<g>
	<g>
		<path class="st0" d="M326.7,60.8l-40,109.1h-26.6l-40-109.1h23.4l30,86.8l29.9-86.8C303.4,60.8,326.7,60.8,326.7,60.8z"/>
		<path class="st0" d="M336.1,112.8v37.1h-14.9v-37.1C321.2,112.8,336.1,112.8,336.1,112.8z"/>
		<path class="st0" d="M366.8,92.8c3.1-1.8,6.6-2.7,10.6-2.7v15.6h-3.9c-4.7,0-8.2,1.1-10.6,3.3c-2.4,2.2-3.6,6-3.6,11.5v29.3h-14.9
			V91h14.9v9.1C361.2,97,363.7,94.6,366.8,92.8z"/>
		<path class="st0" d="M483.5,91.3v58.9h-15v-7.4c-1.9,2.6-4.4,4.6-7.5,6c-3.1,1.5-6.4,2.2-10,2.2c-4.6,0-8.7-1-12.2-2.9
			s-6.3-4.8-8.3-8.6s-3-8.3-3-13.6V91.3h14.9v32.4c0,4.7,1.2,8.3,3.5,10.8s5.5,3.8,9.6,3.8s7.3-1.3,9.7-3.8
			c2.3-2.5,3.5-6.1,3.5-10.8V91.3H483.5z"/>
		<path class="st0" d="M492.1,104.5c2.4-4.6,5.6-8.1,9.7-10.6s8.6-3.7,13.7-3.7c4.4,0,8.2,0.9,11.5,2.7c3.3,1.8,5.9,4,7.9,6.7v-8.4
			h15V150h-15v-8.6c-1.9,2.8-4.6,5-7.9,6.9c-3.4,1.8-7.2,2.7-11.6,2.7c-5,0-9.5-1.3-13.6-3.8c-4.1-2.6-7.3-6.1-9.7-10.8
			c-2.4-4.6-3.6-10-3.6-16C488.5,114.4,489.7,109.1,492.1,104.5z M532.7,111.2c-1.4-2.6-3.3-4.6-5.7-6s-5-2.1-7.8-2.1
			s-5.3,0.7-7.7,2c-2.3,1.3-4.2,3.3-5.7,5.9s-2.2,5.6-2.2,9.2c0,3.5,0.7,6.6,2.2,9.3c1.5,2.7,3.4,4.7,5.7,6.1
			c2.4,1.4,4.9,2.1,7.6,2.1c2.8,0,5.3-0.7,7.8-2.1c2.4-1.4,4.3-3.4,5.7-6s2.1-5.7,2.1-9.3C534.8,116.9,534.1,113.8,532.7,111.2z"/>
		<path class="st0" d="M572.9,60.8v89.1h-17.7V60.8H572.9z"/>
		<path class="st0" d="M421.5,133.4h-7.6c-2.3,0-3.9-0.4-4.8-1.3s-1.4-2.3-1.4-4.3v-21.6h13.2V90.7h-13.2V76.6h-15v14.1h-10v15.5h10
			v25.6c0,12.2,6.3,18.3,18.8,18.3h10.1v-16.7H421.5z"/>
		<g>
			<path class="st0" d="M613.5,113c2.9,0,3.9,1,3.9,3.9v5.1c0,2.9-1,3.9-3.9,3.9h-26.4c-2.9,0-3.9-1-3.9-3.9v-5.1
				c0-2.9,1-3.9,3.9-3.9H613.5z"/>
		</g>
		<path class="st0" d="M322.1,106.2c-1.7-1.7-2.6-3.7-2.6-6.2s0.9-4.6,2.6-6.2c1.7-1.7,3.9-2.5,6.5-2.5s4.8,0.8,6.5,2.5
			s2.6,3.7,2.6,6.2s-0.9,4.6-2.6,6.2c-1.7,1.7-3.9,2.5-6.5,2.5S323.8,107.9,322.1,106.2z"/>
		<path class="st0" d="M680.7,60.8v16.4h-31.6v19.1H677v16.4h-27.9v20.6h31.6v16.4h-52.9V60.8H680.7z"/>
		<path class="st0" d="M687,109.2c0-5.1,2.2-9.4,6.5-12.8s10.2-5.2,17.6-5.2c7.4,0,13.4,1.7,17.9,5.1c4.6,3.4,7,8,7.2,13.9h-18.1
			c-0.2-2-0.9-3.4-2.1-4.1c-1.2-0.7-2.9-1.1-5.3-1.1c-4.6,0-6.9,1.4-6.9,4.2c0,2.6,2.8,4.3,8.5,5.3s10.9,2.4,15.6,4.4
			c2.4,1,4.4,2.6,6,4.8c1.6,2.2,2.4,5,2.4,8.2c0,5.4-2.3,9.8-6.9,13.2c-4.6,3.4-10.4,5.1-17.5,5.1c-7,0-12.9-1.6-17.6-4.8
			c-4.7-3.2-7.2-7.9-7.7-14.2H705c0.5,3.5,3,5.3,7.4,5.3c2.1,0,3.8-0.5,5.1-1.4c1.3-1,2-2.2,2-3.7s-1.1-2.7-3.4-3.6
			c-2.2-0.9-4.9-1.7-8.1-2.3c-3.2-0.6-6.4-1.4-9.6-2.3c-3.2-0.9-5.9-2.5-8.2-4.9S687,113,687,109.2z"/>
	</g>
	<g>
		<path class="st1" d="M113.1,167.5L161,37.3c-10.6-4.6-24.9-8.6-37.2-8.6c-19.8,0-40.3,8.7-54.9,19.9L113.1,167.5z"/>
		<path class="st2" d="M190.1,59.7l-51.5,140.5c40.7-7,71.7-42.4,71.7-85.1C210.2,94,202.6,74.7,190.1,59.7z"/>
		<path class="st2" d="M44,82.3c-4.2,10.1-6.5,21.2-6.5,32.8c0,33.4,18.9,62.3,46.6,76.7L44,82.3z"/>
	</g>
</g>
</svg>
